<mxfile host="65bd71144e">
    <diagram id="S7e_IQsFRIMayySLW0Dx" name="第 1 页">
        <mxGraphModel dx="1839" dy="929" grid="1" gridSize="10" guides="1" tooltips="1" connect="1" arrows="1" fold="1" page="0" pageScale="1" pageWidth="827" pageHeight="1169" math="0" shadow="0">
            <root>
                <mxCell id="0"/>
                <mxCell id="1" parent="0"/>
                <mxCell id="4qFNGakCyiQWUS1txvbO-6" style="edgeStyle=orthogonalEdgeStyle;rounded=0;orthogonalLoop=1;jettySize=auto;html=1;entryX=0;entryY=0.5;entryDx=0;entryDy=0;" parent="1" source="4qFNGakCyiQWUS1txvbO-4" target="4qFNGakCyiQWUS1txvbO-5" edge="1">
                    <mxGeometry relative="1" as="geometry"/>
                </mxCell>
                <mxCell id="4qFNGakCyiQWUS1txvbO-7" value="1 原始日志" style="edgeLabel;html=1;align=center;verticalAlign=middle;resizable=0;points=[];" parent="4qFNGakCyiQWUS1txvbO-6" vertex="1" connectable="0">
                    <mxGeometry x="-0.1833" y="3" relative="1" as="geometry">
                        <mxPoint x="11" y="-7" as="offset"/>
                    </mxGeometry>
                </mxCell>
                <mxCell id="4qFNGakCyiQWUS1txvbO-4" value="原始日志采集" style="rounded=0;whiteSpace=wrap;html=1;" parent="1" vertex="1">
                    <mxGeometry x="-760" y="240" width="80" height="40" as="geometry"/>
                </mxCell>
                <mxCell id="4qFNGakCyiQWUS1txvbO-9" value="" style="edgeStyle=orthogonalEdgeStyle;rounded=0;orthogonalLoop=1;jettySize=auto;html=1;" parent="1" source="4qFNGakCyiQWUS1txvbO-5" target="4qFNGakCyiQWUS1txvbO-8" edge="1">
                    <mxGeometry relative="1" as="geometry">
                        <Array as="points">
                            <mxPoint x="-540" y="200"/>
                            <mxPoint x="-540" y="200"/>
                        </Array>
                    </mxGeometry>
                </mxCell>
                <mxCell id="4qFNGakCyiQWUS1txvbO-11" value="2 原始日志" style="edgeLabel;html=1;align=center;verticalAlign=middle;resizable=0;points=[];" parent="4qFNGakCyiQWUS1txvbO-9" vertex="1" connectable="0">
                    <mxGeometry x="-0.05" relative="1" as="geometry">
                        <mxPoint y="8" as="offset"/>
                    </mxGeometry>
                </mxCell>
                <mxCell id="4qFNGakCyiQWUS1txvbO-14" value="4 日志" style="edgeStyle=orthogonalEdgeStyle;rounded=0;orthogonalLoop=1;jettySize=auto;html=1;entryX=0.25;entryY=0;entryDx=0;entryDy=0;" parent="1" source="4qFNGakCyiQWUS1txvbO-5" target="4qFNGakCyiQWUS1txvbO-13" edge="1">
                    <mxGeometry relative="1" as="geometry">
                        <Array as="points">
                            <mxPoint x="-540" y="300"/>
                            <mxPoint x="-540" y="300"/>
                        </Array>
                    </mxGeometry>
                </mxCell>
                <mxCell id="4qFNGakCyiQWUS1txvbO-18" value="" style="edgeStyle=orthogonalEdgeStyle;rounded=0;orthogonalLoop=1;jettySize=auto;html=1;" parent="1" source="4qFNGakCyiQWUS1txvbO-5" target="4qFNGakCyiQWUS1txvbO-20" edge="1">
                    <mxGeometry relative="1" as="geometry">
                        <mxPoint x="-420" y="260" as="targetPoint"/>
                    </mxGeometry>
                </mxCell>
                <mxCell id="4qFNGakCyiQWUS1txvbO-22" value="6 告警" style="edgeLabel;html=1;align=center;verticalAlign=middle;resizable=0;points=[];" parent="4qFNGakCyiQWUS1txvbO-18" vertex="1" connectable="0">
                    <mxGeometry x="-0.1667" relative="1" as="geometry">
                        <mxPoint as="offset"/>
                    </mxGeometry>
                </mxCell>
                <mxCell id="4qFNGakCyiQWUS1txvbO-5" value="kafka" style="rounded=0;whiteSpace=wrap;html=1;" parent="1" vertex="1">
                    <mxGeometry x="-560" y="240" width="80" height="40" as="geometry"/>
                </mxCell>
                <mxCell id="4qFNGakCyiQWUS1txvbO-10" style="edgeStyle=orthogonalEdgeStyle;rounded=0;orthogonalLoop=1;jettySize=auto;html=1;" parent="1" source="4qFNGakCyiQWUS1txvbO-8" edge="1">
                    <mxGeometry relative="1" as="geometry">
                        <mxPoint x="-500" y="240" as="targetPoint"/>
                        <Array as="points">
                            <mxPoint x="-500" y="240"/>
                        </Array>
                    </mxGeometry>
                </mxCell>
                <mxCell id="4qFNGakCyiQWUS1txvbO-12" value="3 日志" style="edgeLabel;html=1;align=center;verticalAlign=middle;resizable=0;points=[];" parent="4qFNGakCyiQWUS1txvbO-10" vertex="1" connectable="0">
                    <mxGeometry x="-0.075" y="-1" relative="1" as="geometry">
                        <mxPoint y="-7" as="offset"/>
                    </mxGeometry>
                </mxCell>
                <mxCell id="4qFNGakCyiQWUS1txvbO-8" value="filebeat" style="rounded=0;whiteSpace=wrap;html=1;" parent="1" vertex="1">
                    <mxGeometry x="-560" y="120" width="80" height="40" as="geometry"/>
                </mxCell>
                <mxCell id="4qFNGakCyiQWUS1txvbO-15" style="edgeStyle=orthogonalEdgeStyle;rounded=0;orthogonalLoop=1;jettySize=auto;html=1;" parent="1" source="4qFNGakCyiQWUS1txvbO-13" edge="1">
                    <mxGeometry relative="1" as="geometry">
                        <mxPoint x="-500" y="280" as="targetPoint"/>
                        <Array as="points">
                            <mxPoint x="-500" y="280"/>
                        </Array>
                    </mxGeometry>
                </mxCell>
                <mxCell id="4qFNGakCyiQWUS1txvbO-16" value="5 告警" style="edgeLabel;html=1;align=center;verticalAlign=middle;resizable=0;points=[];" parent="4qFNGakCyiQWUS1txvbO-15" vertex="1" connectable="0">
                    <mxGeometry x="-0.0286" y="-1" relative="1" as="geometry">
                        <mxPoint as="offset"/>
                    </mxGeometry>
                </mxCell>
                <mxCell id="4qFNGakCyiQWUS1txvbO-13" value="分析服务" style="rounded=0;whiteSpace=wrap;html=1;" parent="1" vertex="1">
                    <mxGeometry x="-560" y="350" width="80" height="40" as="geometry"/>
                </mxCell>
                <mxCell id="4qFNGakCyiQWUS1txvbO-23" style="edgeStyle=orthogonalEdgeStyle;rounded=0;orthogonalLoop=1;jettySize=auto;html=1;entryX=0;entryY=0.5;entryDx=0;entryDy=0;" parent="1" source="4qFNGakCyiQWUS1txvbO-20" target="4qFNGakCyiQWUS1txvbO-21" edge="1">
                    <mxGeometry relative="1" as="geometry"/>
                </mxCell>
                <mxCell id="4qFNGakCyiQWUS1txvbO-24" value="7 查询数据" style="edgeLabel;html=1;align=center;verticalAlign=middle;resizable=0;points=[];" parent="4qFNGakCyiQWUS1txvbO-23" vertex="1" connectable="0">
                    <mxGeometry x="-0.05" y="1" relative="1" as="geometry">
                        <mxPoint as="offset"/>
                    </mxGeometry>
                </mxCell>
                <mxCell id="4qFNGakCyiQWUS1txvbO-20" value="postgres" style="strokeWidth=2;html=1;shape=mxgraph.flowchart.database;whiteSpace=wrap;" parent="1" vertex="1">
                    <mxGeometry x="-420" y="235" width="60" height="50" as="geometry"/>
                </mxCell>
                <mxCell id="4qFNGakCyiQWUS1txvbO-21" value="backend" style="rounded=0;whiteSpace=wrap;html=1;" parent="1" vertex="1">
                    <mxGeometry x="-280" y="240" width="80" height="40" as="geometry"/>
                </mxCell>
            </root>
        </mxGraphModel>
    </diagram>
</mxfile>